name rise34.3697peak60.0498fall86.3158.mot
datacolumns 19
datarows 21
range 19.35659200000000 19.38992600000000
endheader
time	ground_force1_vx	ground_force1_vy	ground_force1_vz	ground_force1_px	ground_force1_py	ground_force1_pz	ground_force2_vx	ground_force2_vy	ground_force2_vz	ground_force2_px	ground_force2_py	ground_force2_pz	ground_torque1_x	ground_torque1_y	ground_torque1_z	ground_torque2_x	ground_torque2_y	ground_torque2_z	
19.35659200000000	66.43961600000000	767.65958999999998	61.22258900000000	0.41013400000000	0.00000000000000	0.12125300000000	0.00000000000000	0.00000000000000	0.00000000000000	0.00000000000000	0.00000000000000	0.00000000000000	0.00000000000000	32.77392200000000	0.00000000000000	0.00000000000000	0.00000000000000	0.00000000000000	
19.35826500000000	65.65451899999999	770.28956700000003	61.32694700000000	0.40861200000000	0.00000000000000	0.12124100000000	0.00000000000000	0.00000000000000	0.00000000000000	0.00000000000000	0.00000000000000	0.00000000000000	0.00000000000000	32.85402800000000	0.00000000000000	0.00000000000000	0.00000000000000	0.00000000000000	
19.35992700000000	64.87032100000000	772.80716299999995	61.44071600000000	0.40710900000000	0.00000000000000	0.12123100000000	0.00000000000000	0.00000000000000	0.00000000000000	0.00000000000000	0.00000000000000	0.00000000000000	0.00000000000000	32.94255600000000	0.00000000000000	0.00000000000000	0.00000000000000	0.00000000000000	
19.36159400000000	64.08759800000000	775.20946700000002	61.56349200000000	0.40562700000000	0.00000000000000	0.12122300000000	0.00000000000000	0.00000000000000	0.00000000000000	0.00000000000000	0.00000000000000	0.00000000000000	0.00000000000000	33.03913200000000	0.00000000000000	0.00000000000000	0.00000000000000	0.00000000000000	
19.36326000000000	63.30686100000000	777.49367299999994	61.69475700000000	0.40416500000000	0.00000000000000	0.12121600000000	0.00000000000000	0.00000000000000	0.00000000000000	0.00000000000000	0.00000000000000	0.00000000000000	0.00000000000000	33.14330000000000	0.00000000000000	0.00000000000000	0.00000000000000	0.00000000000000	
19.36492700000000	62.52855400000000	779.65709600000002	61.83388300000000	0.40272400000000	0.00000000000000	0.12121100000000	0.00000000000000	0.00000000000000	0.00000000000000	0.00000000000000	0.00000000000000	0.00000000000000	0.00000000000000	33.25452700000000	0.00000000000000	0.00000000000000	0.00000000000000	0.00000000000000	
19.36659000000000	61.75305600000000	781.69719399999997	61.98014200000000	0.40130400000000	0.00000000000000	0.12120700000000	0.00000000000000	0.00000000000000	0.00000000000000	0.00000000000000	0.00000000000000	0.00000000000000	0.00000000000000	33.37220900000000	0.00000000000000	0.00000000000000	0.00000000000000	0.00000000000000	
19.36826200000000	60.98069000000000	783.61158399999999	62.13271100000000	0.39990500000000	0.00000000000000	0.12120400000000	0.00000000000000	0.00000000000000	0.00000000000000	0.00000000000000	0.00000000000000	0.00000000000000	0.00000000000000	33.49567500000000	0.00000000000000	0.00000000000000	0.00000000000000	0.00000000000000	
19.36992600000000	60.21172200000000	785.39805999999999	62.29068000000000	0.39852700000000	0.00000000000000	0.12120200000000	0.00000000000000	0.00000000000000	0.00000000000000	0.00000000000000	0.00000000000000	0.00000000000000	0.00000000000000	33.62419400000000	0.00000000000000	0.00000000000000	0.00000000000000	0.00000000000000	
19.37158900000000	59.44636700000000	787.05460600000004	62.45306100000000	0.39717000000000	0.00000000000000	0.12120100000000	0.00000000000000	0.00000000000000	0.00000000000000	0.00000000000000	0.00000000000000	0.00000000000000	0.00000000000000	33.75697900000000	0.00000000000000	0.00000000000000	0.00000000000000	0.00000000000000	
19.37325700000000	58.68479200000000	788.57941800000003	62.61879300000000	0.39583400000000	0.00000000000000	0.12120100000000	0.00000000000000	0.00000000000000	0.00000000000000	0.00000000000000	0.00000000000000	0.00000000000000	0.00000000000000	33.89319800000000	0.00000000000000	0.00000000000000	0.00000000000000	0.00000000000000	
19.37492200000000	57.92712100000000	789.97090800000001	62.78675500000000	0.39451800000000	0.00000000000000	0.12120100000000	0.00000000000000	0.00000000000000	0.00000000000000	0.00000000000000	0.00000000000000	0.00000000000000	0.00000000000000	34.03197300000000	0.00000000000000	0.00000000000000	0.00000000000000	0.00000000000000	
19.37659000000000	57.17344000000000	791.22772499999996	62.95577100000000	0.39322300000000	0.00000000000000	0.12120200000000	0.00000000000000	0.00000000000000	0.00000000000000	0.00000000000000	0.00000000000000	0.00000000000000	0.00000000000000	34.17239500000000	0.00000000000000	0.00000000000000	0.00000000000000	0.00000000000000	
19.37826200000000	56.42379900000000	792.34876199999997	63.12462200000000	0.39194600000000	0.00000000000000	0.12120300000000	0.00000000000000	0.00000000000000	0.00000000000000	0.00000000000000	0.00000000000000	0.00000000000000	0.00000000000000	34.31352300000000	0.00000000000000	0.00000000000000	0.00000000000000	0.00000000000000	
19.37992900000000	55.67821800000000	793.33316700000000	63.29205400000000	0.39068800000000	0.00000000000000	0.12120500000000	0.00000000000000	0.00000000000000	0.00000000000000	0.00000000000000	0.00000000000000	0.00000000000000	0.00000000000000	34.45439500000000	0.00000000000000	0.00000000000000	0.00000000000000	0.00000000000000	
19.38158900000000	54.93669100000000	794.18035199999997	63.45678500000000	0.38944800000000	0.00000000000000	0.12120600000000	0.00000000000000	0.00000000000000	0.00000000000000	0.00000000000000	0.00000000000000	0.00000000000000	0.00000000000000	34.59403300000000	0.00000000000000	0.00000000000000	0.00000000000000	0.00000000000000	
19.38326200000000	54.19918900000000	794.88999899999999	63.61752000000000	0.38822500000000	0.00000000000000	0.12120600000000	0.00000000000000	0.00000000000000	0.00000000000000	0.00000000000000	0.00000000000000	0.00000000000000	0.00000000000000	34.73145000000000	0.00000000000000	0.00000000000000	0.00000000000000	0.00000000000000	
19.38492200000000	53.46566500000000	795.46206500000005	63.77295400000000	0.38701900000000	0.00000000000000	0.12120700000000	0.00000000000000	0.00000000000000	0.00000000000000	0.00000000000000	0.00000000000000	0.00000000000000	0.00000000000000	34.86565600000000	0.00000000000000	0.00000000000000	0.00000000000000	0.00000000000000	
19.38658900000000	52.73606100000000	795.89679000000001	63.92178400000000	0.38582800000000	0.00000000000000	0.12120700000000	0.00000000000000	0.00000000000000	0.00000000000000	0.00000000000000	0.00000000000000	0.00000000000000	0.00000000000000	34.99566400000000	0.00000000000000	0.00000000000000	0.00000000000000	0.00000000000000	
19.38827300000000	52.01030500000000	796.19469600000002	64.06271800000000	0.38465100000000	0.00000000000000	0.12120600000000	0.00000000000000	0.00000000000000	0.00000000000000	0.00000000000000	0.00000000000000	0.00000000000000	0.00000000000000	35.12049800000000	0.00000000000000	0.00000000000000	0.00000000000000	0.00000000000000	
19.38992600000000	51.28832200000000	796.35658999999998	64.19448400000000	0.38348800000000	0.00000000000000	0.12120500000000	0.00000000000000	0.00000000000000	0.00000000000000	0.00000000000000	0.00000000000000	0.00000000000000	0.00000000000000	35.23919600000000	0.00000000000000	0.00000000000000	0.00000000000000	0.00000000000000	
